# xmcd
#
# Track frame offsets:
# 150
# 18750
# 35458
# 53731
# 73308
# 90141
# 116764
# 130212
# 146926
# 161650
# 178579
#
# Disc length: 2698 seconds
#
#
# Revision: 0
# Processed by: cddbd v1.5.1PL0 Copyright (c) Steve Scherf et al.
# Submitted via: FreeRIP 2.942 
#
DISCID=940a880b
DTITLE=Travis Nelson - Turn Out the Stars
DYEAR=1996
DGENRE=Country
TTITLE0=Woman Be Me
TTITLE1=Little Things
TTITLE2=Turn Out the Stars
TTITLE3=Brand New
TTITLE4=Amorina
TTITLE5=Hero to her
TTITLE6=Heartbreak Express
TTITLE7=Angel Blue
TTITLE8=This Side of Heaven
TTITLE9=Nobody's Child
TTITLE10=Silver Blanket
EXTD=
EXTT0=
EXTT1=
EXTT2=
EXTT3=
EXTT4=
EXTT5=
EXTT6=
EXTT7=
EXTT8=
EXTT9=
EXTT10=
PLAYORDER=
